<?xml version="1.0"?>
<svg xmlns="http://www.w3.org/2000/svg" viewBox="0 0 64 64" width="512" height="512"><path d="m58.08093 47.40125a4 4 0 1 0 -4.16186 0 6.35345 6.35345 0 0 0 -3.91907 5.96234v8.63641h12v-8.63641a6.35345 6.35345 0 0 0 -3.91907-5.96234z" fill="#e9cd4b"/><path d="m52 44a3.98522 3.98522 0 0 0 1.91907 3.40125 6.35345 6.35345 0 0 0 -3.91907 5.96234v8.63641h6v-22a4 4 0 0 0 -4 4z" fill="#efd97f"/><g fill="#ff3b3b"><path d="m60.799 19.12606a4.296 4.296 0 0 0 -5.799 0 4.296 4.296 0 0 0 -5.799 0 3.67719 3.67719 0 0 0 0 5.437l5.799 5.43694 5.799-5.437a3.67719 3.67719 0 0 0 0-5.43694z"/><path d="m14.799 19.12606a4.296 4.296 0 0 0 -5.799 0 4.296 4.296 0 0 0 -5.799 0 3.67719 3.67719 0 0 0 0 5.437l5.799 5.43694 5.799-5.437a3.67719 3.67719 0 0 0 0-5.43694z"/><path d="m43.06952 3.95245a6.84171 6.84171 0 0 0 -9.57166 0l-1.49786 1.48206-1.49786-1.48206a6.84171 6.84171 0 0 0 -9.57166 0 6.42368 6.42368 0 0 0 0 9.18146l11.06952 10.86609 11.06952-10.86609a6.42368 6.42368 0 0 0 0-9.18146z"/></g><path d="m25.55927 6.86371a5.21881 5.21881 0 0 1 2.843-1.75116 4.46287 4.46287 0 0 0 -5.14.77942 4.2 4.2 0 0 0 0 6.00329l.93542.9256a6.89079 6.89079 0 0 1 1.36158-5.95715z" fill="#f47a7a"/><path d="m5.22375 20.09131a3.50335 3.50335 0 0 1 1.77625-.85504 3.39635 3.39635 0 0 0 -3.21136.38057 1.75617 1.75617 0 0 0 0 2.93122l.58443.45194a2.83015 2.83015 0 0 1 .85068-2.90869z" fill="#f47a7a"/><path d="m51.22375 20.09131a3.50335 3.50335 0 0 1 1.77625-.85504 3.39635 3.39635 0 0 0 -3.21136.38057 1.75617 1.75617 0 0 0 0 2.93122l.58443.45194a2.83015 2.83015 0 0 1 .85068-2.90869z" fill="#f47a7a"/><path d="m46.08093 47.40125a4 4 0 1 0 -4.16186 0 6.35345 6.35345 0 0 0 -3.91907 5.96234v8.63641h12v-8.63641a6.35345 6.35345 0 0 0 -3.91907-5.96234z" fill="#8bd6ea"/><path d="m40 44a3.98522 3.98522 0 0 0 1.91907 3.40125 6.35345 6.35345 0 0 0 -3.91907 5.96234v8.63641h6v-22a4 4 0 0 0 -4 4z" fill="#bfecf7"/><path d="m34.08093 47.40125a4 4 0 1 0 -4.16186 0 6.35345 6.35345 0 0 0 -3.91907 5.96234v8.63641h12v-8.63641a6.35345 6.35345 0 0 0 -3.91907-5.96234z" fill="#e9a5f2"/><path d="m28 44a3.98522 3.98522 0 0 0 1.91907 3.40125 6.35345 6.35345 0 0 0 -3.91907 5.96234v8.63641h6v-22a4 4 0 0 0 -4 4z" fill="#e7caed"/><path d="m22.08093 47.40125a4 4 0 1 0 -4.16186 0 6.35345 6.35345 0 0 0 -3.91907 5.96234v8.63641h12v-8.63641a6.35345 6.35345 0 0 0 -3.91907-5.96234z" fill="#f4a640"/><path d="m16 44a3.98522 3.98522 0 0 0 1.91907 3.40125 6.35345 6.35345 0 0 0 -3.91907 5.96234v8.63641h6v-22a4 4 0 0 0 -4 4z" fill="#f4b978"/><path d="m10.08093 47.40125a4 4 0 1 0 -4.16186 0 6.35345 6.35345 0 0 0 -3.91907 5.96234v8.63641h12v-8.63641a6.35345 6.35345 0 0 0 -3.91907-5.96234z" fill="#4bef62"/><path d="m4 44a3.98522 3.98522 0 0 0 1.91907 3.40125 6.35345 6.35345 0 0 0 -3.91907 5.96234v8.63641h6v-22a4 4 0 0 0 -4 4z" fill="#90f49a"/></svg>
